# xmcd
#
# Track frame offsets:
#	150
#	13205
#	28910
#	43190
#	56537
#	72362
#	83905
#	101290
#	112437
#	126415
#	146727
#	172807
#	183995
#	197997
#	215552
#	229012
#	243007
#	259592
#	273320
#	287032
#	301722
#	315222
#
# Disc length: 4381 seconds
#
# Revision: 0
# Processed by: cddbd v1.5.2PL0 Copyright (c) Steve Scherf et al.
# Submitted via: EasyCDDAExtractor 16.0.6.1
#
DISCID=3f111b16
DTITLE=Αλεξίου Χάρις - Τα λαϊκά της Χαρούλας -Χ. Αλεξίου
DYEAR=1994
DGENRE=Λαϊκή
TTITLE0=Η Ρόζα η ναζιάρα
TTITLE1=Όταν πίνει μιά γυναίκα
TTITLE2=Ζήλεια μου
TTITLE3=Οι μάγκες δεν υπάρχουν πια
TTITLE4=Αν πεθάνει μιά αγάπη
TTITLE5=Τέλι, τέλι, τέλι
TTITLE6=Ξημερώνει
TTITLE7=Την όγδοη μέρα
TTITLE8=Η διαθήκη
TTITLE9=Τώρα κι εγώ θα ζήσω
TTITLE10=Η ζωή μου κύκλους κάνει
TTITLE11=Γύφτισσα τον εβύζαξε
TTITLE12=Μιά ζωή μέσα στους δρόμους
TTITLE13=Γκαρσόνα
TTITLE14=Ούζο όταν πίνεις
TTITLE15=Ο καϊξής
TTITLE16=Ο φαντάρος
TTITLE17=Όλες του κόσμου οι Κυριακές
TTITLE18=Η νύχτα θέλει έρωτα
TTITLE19=Μία είναι η ουσία
TTITLE20=Μανταλιώ
TTITLE21=Όποια και νά 'σαι
EXTD=
EXTT0=
EXTT1=
EXTT2=
EXTT3=
EXTT4=
EXTT5=
EXTT6=
EXTT7=
EXTT8=
EXTT9=
EXTT10=
EXTT11=
EXTT12=
EXTT13=
EXTT14=
EXTT15=
EXTT16=
EXTT17=
EXTT18=
EXTT19=
EXTT20=
EXTT21=
PLAYORDER=
